<svg xmlns="http://www.w3.org/2000/svg" width="19" height="20" viewBox="0 0 19 20" fill="none">
<path fill-rule="evenodd" clip-rule="evenodd" d="M6.25178 3.30157C5.55825 4.09224 5.16667 5.23859 5.16667 6.60195V8.33529C5.16667 9.19582 4.77938 9.91075 4.36882 10.4555C3.99335 10.9537 3.52576 11.4009 3.15857 11.7522C3.12774 11.7817 3.09761 11.8105 3.06831 11.8386C2.72481 12.1681 2.5 12.6156 2.5 13.1353C2.5 13.6605 2.89364 14.002 3.27778 14.002H15.7222C16.1064 14.002 16.5 13.6605 16.5 13.1353C16.5 12.6156 16.2752 12.1681 15.9317 11.8386C15.9024 11.8105 15.8723 11.7817 15.8414 11.7522C15.4742 11.4009 15.0066 10.9536 14.6312 10.4555C14.2206 9.91075 13.8333 9.19582 13.8333 8.33529V6.60195C13.8333 5.23859 13.4417 4.09224 12.7482 3.30157C12.0713 2.52978 11.0251 2.00195 9.5 2.00195C7.97494 2.00195 6.92875 2.52978 6.25178 3.30157ZM4.74822 1.98274C5.84903 0.727732 7.4695 0.00195312 9.5 0.00195312C11.5305 0.00195312 13.151 0.727732 14.2518 1.98274C15.336 3.21887 15.8333 4.87252 15.8333 6.60195V8.33529C15.8333 8.57932 15.9428 8.87289 16.2283 9.2517C16.502 9.61482 16.8573 9.95538 17.2498 10.3316C17.2718 10.3527 17.294 10.374 17.3163 10.3954C18 11.0513 18.5 12.0016 18.5 13.1353C18.5 14.672 17.3018 16.002 15.7222 16.002H3.27778C1.69824 16.002 0.5 14.672 0.5 13.1353C0.5 12.0016 0.999968 11.0513 1.68372 10.3954C1.706 10.374 1.72817 10.3527 1.75022 10.3316C2.1427 9.95539 2.49798 9.61482 2.77166 9.25171C3.05716 8.8729 3.16667 8.57932 3.16667 8.33529V6.60195C3.16667 4.87252 3.66397 3.21887 4.74822 1.98274Z" fill="currentColor"/>
<path fill-rule="evenodd" clip-rule="evenodd" d="M6.94301 17.1715C7.4017 16.8639 8.02291 16.9864 8.33051 17.4451C8.4299 17.5933 8.5843 17.7331 8.79191 17.8365C8.99975 17.9401 9.24442 17.9985 9.49998 17.9985C9.75554 17.9985 10.0002 17.9401 10.2081 17.8365C10.4157 17.7331 10.5701 17.5933 10.6694 17.4451C10.9771 16.9864 11.5983 16.8639 12.057 17.1715C12.5156 17.4791 12.6381 18.1003 12.3305 18.559C12.0234 19.017 11.5943 19.3803 11.0999 19.6266C10.6058 19.8729 10.0545 19.9985 9.49998 19.9985C8.94542 19.9985 8.39418 19.8729 7.90002 19.6266C7.40562 19.3803 6.97656 19.017 6.66945 18.559C6.36184 18.1003 6.48432 17.4791 6.94301 17.1715Z" fill="currentColor"/>
</svg>