<svg width="184" height="43" viewBox="0 0 184 43" fill="none" xmlns="http://www.w3.org/2000/svg">
<path fill-rule="evenodd" clip-rule="evenodd" d="M19.5589 0L9.77954 21.5H19.5589L29.3386 0H19.5589Z" fill="#CCCCCC"/>
<path fill-rule="evenodd" clip-rule="evenodd" d="M0 0L9.77953 21.5H19.5591L9.77953 0H0Z" fill="#FF4A4A"/>
<path fill-rule="evenodd" clip-rule="evenodd" d="M43.4645 25.8C43.4645 27.5812 42.0048 29.025 40.2047 29.025C38.4041 29.025 36.9448 27.5812 36.9448 25.8C36.9448 24.0187 38.4041 22.575 40.2047 22.575C42.0048 22.575 43.4645 24.0187 43.4645 25.8Z" fill="#FF4A4A"/>
<path fill-rule="evenodd" clip-rule="evenodd" d="M32.8482 27.95H22.8188C24.015 36.3958 31.3535 42.917 40.2047 42.917V33.2086C36.7829 33.2086 33.8769 31.0008 32.8482 27.95Z" fill="#FFC10D"/>
<path fill-rule="evenodd" clip-rule="evenodd" d="M32.8482 23.65C33.8769 20.5822 36.7829 18.3621 40.2047 18.3621V8.59998C31.3535 8.59998 24.015 15.1573 22.8188 23.65H32.8482Z" fill="#FFC10D"/>
<path fill-rule="evenodd" clip-rule="evenodd" d="M64.7447 16.168L70.2386 3.09597H71.5368L64.9997 18.4613H64.5129L57.9526 3.09597H59.2508L64.7447 16.168ZM74.7126 3.09597H75.918V18.232H74.7126V3.09597ZM86.7667 11.352L91.9361 18.232H90.5221L85.3759 11.4437H81.6437V18.232H80.4383V3.09597H85.6309C87.0449 3.09597 88.1808 3.48584 89.0153 4.26557C89.8498 5.04531 90.2671 6.03144 90.2671 7.24691C90.2671 9.35677 88.969 10.9621 86.7667 11.352ZM85.5845 4.17384H81.6437V10.3658H85.5845C87.7867 10.3658 89.0153 9.10451 89.0153 7.26984C89.0153 5.43517 87.7867 4.17384 85.5845 4.17384ZM92.3766 3.09597H104.778V4.17384H99.1686V18.232H97.9632V4.17384H92.3766V3.09597ZM113.75 2.86664C115.929 2.86664 117.783 3.62344 119.313 5.1141C120.843 6.60477 121.608 8.46237 121.608 10.664C121.608 12.8426 120.843 14.7002 119.313 16.2138C117.783 17.7045 115.929 18.4613 113.75 18.4613C111.547 18.4613 109.693 17.7045 108.186 16.2138C106.679 14.7002 105.914 12.8426 105.914 10.664C105.914 8.46237 106.679 6.60477 108.186 5.1141C109.693 3.62344 111.547 2.86664 113.75 2.86664ZM113.773 3.96744C111.895 3.96744 110.319 4.60957 109.067 5.89384C107.815 7.15517 107.189 8.73757 107.189 10.641C107.189 12.5445 107.815 14.1269 109.067 15.4112C110.319 16.6954 111.895 17.3376 113.773 17.3376C115.65 17.3376 117.204 16.6954 118.455 15.4112C119.707 14.1269 120.333 12.5445 120.333 10.641C120.333 8.7605 119.707 7.1781 118.432 5.89384C117.18 4.60957 115.627 3.96744 113.773 3.96744ZM66.1124 25.8C68.6855 25.8 70.9341 26.9696 72.3017 28.873L71.3977 29.584C70.1227 27.7952 68.361 26.9008 66.1356 26.9008C64.2579 26.9008 62.7048 27.5429 61.4298 28.8272C60.178 30.0885 59.5521 31.6709 59.5521 33.5744C59.5521 35.4778 60.178 37.0832 61.4298 38.3674C62.6816 39.6288 64.2579 40.2709 66.1356 40.2709C68.3841 40.2709 70.1227 39.3765 71.3977 37.6106L72.3017 38.3216C70.9341 40.225 68.6855 41.3946 66.1124 41.3946C63.9102 41.3946 62.0557 40.6378 60.5489 39.1472C59.0421 37.6565 58.2772 35.7989 58.2772 33.5973C58.2772 31.3957 59.0421 29.5381 60.5489 28.0474C62.0557 26.5568 63.9102 25.8 66.1124 25.8ZM82.5014 25.8C84.6804 25.8 86.5349 26.5568 88.0649 28.0474C89.5948 29.5381 90.3598 31.3957 90.3598 33.5973C90.3598 35.776 89.5948 37.6336 88.0649 39.1472C86.5349 40.6378 84.6804 41.3946 82.5014 41.3946C80.2992 41.3946 78.4447 40.6378 76.938 39.1472C75.4312 37.6336 74.6662 35.776 74.6662 33.5973C74.6662 31.3957 75.4312 29.5381 76.938 28.0474C78.4447 26.5568 80.2992 25.8 82.5014 25.8ZM82.5246 26.9008C80.6469 26.9008 79.0706 27.5429 77.8188 28.8272C76.5671 30.0885 75.9412 31.6709 75.9412 33.5744C75.9412 35.4778 76.5671 37.0602 77.8188 38.3445C79.0706 39.6288 80.6469 40.2709 82.5246 40.2709C84.4023 40.2709 85.9554 39.6288 87.2072 38.3445C88.459 37.0602 89.0849 35.4778 89.0849 33.5744C89.0849 31.6938 88.459 30.1114 87.184 28.8272C85.9322 27.5429 84.3791 26.9008 82.5246 26.9008ZM100.675 34.8128L107.05 25.8H107.514V41.1653H106.308V28.8501L100.93 36.441H100.467L95.0656 28.8501V41.1653H93.8602V25.8H94.3238L100.675 34.8128ZM118.873 34.8128L125.247 25.8H125.711V41.1653H124.506V28.8501L119.128 36.441H118.664L113.263 28.8501V41.1653H112.057V25.8H112.521L118.873 34.8128ZM130.254 26.0293H139.828V27.1072H131.46V32.4506H137.974V33.5285H131.46V40.0874H140.106V41.1653H130.254V26.0293ZM149.634 34.2853L154.803 41.1653H153.389L148.243 34.377H144.511V41.1653H143.305V26.0293H148.498C149.912 26.0293 151.048 26.4192 151.882 27.1989C152.717 27.9786 153.134 28.9648 153.134 30.1802C153.134 32.2901 151.836 33.8954 149.634 34.2853ZM148.452 27.1072H144.511V33.2992H148.452C150.654 33.2992 151.882 32.0378 151.882 30.2032C151.882 28.3685 150.654 27.1072 148.452 27.1072ZM163.983 25.8C166.556 25.8 168.805 26.9696 170.172 28.873L169.268 29.584C167.993 27.7952 166.232 26.9008 164.006 26.9008C162.129 26.9008 160.575 27.5429 159.3 28.8272C158.049 30.0885 157.423 31.6709 157.423 33.5744C157.423 35.4778 158.049 37.0832 159.3 38.3674C160.552 39.6288 162.129 40.2709 164.006 40.2709C166.255 40.2709 167.993 39.3765 169.268 37.6106L170.172 38.3216C168.805 40.225 166.556 41.3946 163.983 41.3946C161.781 41.3946 159.926 40.6378 158.42 39.1472C156.913 37.6565 156.148 35.7989 156.148 33.5973C156.148 31.3957 156.913 29.5381 158.42 28.0474C159.926 26.5568 161.781 25.8 163.983 25.8ZM173.696 26.0293H183.27V27.1072H174.901V32.4506H181.415V33.5285H174.901V40.0874H183.548V41.1653H173.696V26.0293Z" fill="#465769"/>
</svg>
