<svg width="252" height="81" viewBox="0 0 252 81" fill="none" xmlns="http://www.w3.org/2000/svg">
<g filter="url(#filter0_d)">
<path fill-rule="evenodd" clip-rule="evenodd" d="M34.5982 11L22.7992 36.5H34.5982L46.3976 11H34.5982Z" fill="#CCCCCC"/>
<path fill-rule="evenodd" clip-rule="evenodd" d="M11 11L22.7992 36.5H34.5984L22.7992 11H11Z" fill="#FF4A4A"/>
<path fill-rule="evenodd" clip-rule="evenodd" d="M63.441 41.6C63.441 43.7127 61.6798 45.425 59.5079 45.425C57.3355 45.425 55.5748 43.7127 55.5748 41.6C55.5748 39.4874 57.3355 37.775 59.5079 37.775C61.6798 37.775 63.441 39.4874 63.441 41.6Z" fill="#FF4A4A"/>
<path fill-rule="evenodd" clip-rule="evenodd" d="M50.6321 44.15H38.5315C39.9747 54.1672 48.8288 61.9016 59.5079 61.9016V50.3871C55.3794 50.3871 51.8732 47.7685 50.6321 44.15Z" fill="#FFC10D"/>
<path fill-rule="evenodd" clip-rule="evenodd" d="M50.6321 39.05C51.8732 35.4115 55.3794 32.7784 59.5079 32.7784V21.2C48.8288 21.2 39.9747 28.9773 38.5315 39.05H50.6321Z" fill="#FFC10D"/>
<path fill-rule="evenodd" clip-rule="evenodd" d="M89.116 30.176L95.7446 14.672H97.3108L89.4237 32.896H88.8364L80.9213 14.672H82.4875L89.116 30.176ZM101.142 14.672H102.597V32.624H101.142V14.672ZM115.686 24.464L121.923 32.624H120.217L114.008 24.5728H109.505V32.624H108.051V14.672H114.316C116.022 14.672 117.392 15.1344 118.399 16.0592C119.406 16.984 119.909 18.1536 119.909 19.5952C119.909 22.0976 118.343 24.0016 115.686 24.464ZM114.26 15.9504H109.505V23.2944H114.26C116.917 23.2944 118.399 21.7984 118.399 19.6224C118.399 17.4464 116.917 15.9504 114.26 15.9504ZM122.454 14.672H137.418V15.9504H130.649V32.624H129.195V15.9504H122.454V14.672ZM148.241 14.4C150.87 14.4 153.108 15.2976 154.954 17.0656C156.8 18.8336 157.723 21.0368 157.723 23.648C157.723 26.232 156.8 28.4352 154.954 30.2304C153.108 31.9984 150.87 32.896 148.241 32.896C145.584 32.896 143.347 31.9984 141.529 30.2304C139.711 28.4352 138.788 26.232 138.788 23.648C138.788 21.0368 139.711 18.8336 141.529 17.0656C143.347 15.2976 145.584 14.4 148.241 14.4ZM148.269 15.7056C146.004 15.7056 144.102 16.4672 142.592 17.9904C141.082 19.4864 140.326 21.3632 140.326 23.6208C140.326 25.8784 141.082 27.7552 142.592 29.2784C144.102 30.8016 146.004 31.5632 148.269 31.5632C150.535 31.5632 152.409 30.8016 153.919 29.2784C155.429 27.7552 156.185 25.8784 156.185 23.6208C156.185 21.3904 155.429 19.5136 153.891 17.9904C152.381 16.4672 150.507 15.7056 148.269 15.7056ZM90.7662 41.6C93.8707 41.6 96.5836 42.9872 98.2338 45.2448L97.143 46.088C95.6047 43.9664 93.4791 42.9056 90.7941 42.9056C88.5287 42.9056 86.6548 43.6672 85.1165 45.1904C83.6062 46.6864 82.8511 48.5632 82.8511 50.8208C82.8511 53.0784 83.6062 54.9824 85.1165 56.5056C86.6268 58.0016 88.5287 58.7632 90.7941 58.7632C93.5071 58.7632 95.6047 57.7024 97.143 55.608L98.2338 56.4512C96.5836 58.7088 93.8707 60.096 90.7662 60.096C88.1092 60.096 85.8717 59.1984 84.0537 57.4304C82.2358 55.6624 81.3128 53.4592 81.3128 50.848C81.3128 48.2368 82.2358 46.0336 84.0537 44.2656C85.8717 42.4976 88.1092 41.6 90.7662 41.6ZM110.54 41.6C113.169 41.6 115.406 42.4976 117.252 44.2656C119.098 46.0336 120.021 48.2368 120.021 50.848C120.021 53.432 119.098 55.6352 117.252 57.4304C115.406 59.1984 113.169 60.096 110.54 60.096C107.883 60.096 105.645 59.1984 103.827 57.4304C102.01 55.6352 101.087 53.432 101.087 50.848C101.087 48.2368 102.01 46.0336 103.827 44.2656C105.645 42.4976 107.883 41.6 110.54 41.6ZM110.568 42.9056C108.302 42.9056 106.401 43.6672 104.89 45.1904C103.38 46.6864 102.625 48.5632 102.625 50.8208C102.625 53.0784 103.38 54.9552 104.89 56.4784C106.401 58.0016 108.302 58.7632 110.568 58.7632C112.833 58.7632 114.707 58.0016 116.218 56.4784C117.728 54.9552 118.483 53.0784 118.483 50.8208C118.483 48.5904 117.728 46.7136 116.19 45.1904C114.679 43.6672 112.805 42.9056 110.568 42.9056ZM132.467 52.2896L140.159 41.6H140.718V59.824H139.264V45.2176L132.775 54.2208H132.216L125.699 45.2176V59.824H124.244V41.6H124.804L132.467 52.2896ZM154.422 52.2896L162.114 41.6H162.673V59.824H161.219V45.2176L154.73 54.2208H154.171L147.654 45.2176V59.824H146.2V41.6H146.759L154.422 52.2896ZM168.155 41.872H179.706V43.1504H169.609V49.488H177.469V50.7664H169.609V58.5456H180.042V59.824H168.155V41.872ZM191.537 51.664L197.774 59.824H196.068L189.859 51.7728H185.356V59.824H183.901V41.872H190.166C191.872 41.872 193.243 42.3344 194.25 43.2592C195.257 44.184 195.76 45.3536 195.76 46.7952C195.76 49.2976 194.194 51.2016 191.537 51.664ZM190.11 43.1504H185.356V50.4944H190.11C192.767 50.4944 194.25 48.9984 194.25 46.8224C194.25 44.6464 192.767 43.1504 190.11 43.1504ZM208.849 41.6C211.954 41.6 214.667 42.9872 216.317 45.2448L215.226 46.088C213.688 43.9664 211.562 42.9056 208.877 42.9056C206.612 42.9056 204.738 43.6672 203.2 45.1904C201.689 46.6864 200.934 48.5632 200.934 50.8208C200.934 53.0784 201.689 54.9824 203.2 56.5056C204.71 58.0016 206.612 58.7632 208.877 58.7632C211.59 58.7632 213.688 57.7024 215.226 55.608L216.317 56.4512C214.667 58.7088 211.954 60.096 208.849 60.096C206.192 60.096 203.955 59.1984 202.137 57.4304C200.319 55.6624 199.396 53.4592 199.396 50.848C199.396 48.2368 200.319 46.0336 202.137 44.2656C203.955 42.4976 206.192 41.6 208.849 41.6ZM220.568 41.872H232.119V43.1504H222.022V49.488H229.882V50.7664H222.022V58.5456H232.455V59.824H220.568V41.872Z" fill="white"/>
</g>
<defs>
<filter id="filter0_d" x="0" y="0" width="252" height="81" filterUnits="userSpaceOnUse" color-interpolation-filters="sRGB">
<feFlood flood-opacity="0" result="BackgroundImageFix"/>
<feColorMatrix in="SourceAlpha" type="matrix" values="0 0 0 0 0 0 0 0 0 0 0 0 0 0 0 0 0 0 127 0" result="hardAlpha"/>
<feOffset dx="4" dy="4"/>
<feGaussianBlur stdDeviation="7.5"/>
<feColorMatrix type="matrix" values="0 0 0 0 0 0 0 0 0 0 0 0 0 0 0 0 0 0 0.35 0"/>
<feBlend mode="normal" in2="BackgroundImageFix" result="effect1_dropShadow"/>
<feBlend mode="normal" in="SourceGraphic" in2="effect1_dropShadow" result="shape"/>
</filter>
</defs>
</svg>
