<svg width="22" height="22" viewBox="0 0 22 22" fill="none" xmlns="http://www.w3.org/2000/svg">
<path fill-rule="evenodd" clip-rule="evenodd" d="M12.4559 2.36258C12.4848 2.24647 12.5001 2.12502 12.5001 2C12.5001 1.17157 11.8285 0.5 11.0001 0.5C10.1716 0.5 9.50006 1.17157 9.50006 2C9.50006 2.12411 9.51513 2.24469 9.54355 2.36003C8.13619 2.64253 6.83131 3.3345 5.80129 4.36453C4.42602 5.73979 3.6534 7.60506 3.6534 9.54998V14.1333C3.6534 14.6195 3.46024 15.0859 3.11643 15.4297C2.77261 15.7735 2.3063 15.9666 1.82007 15.9666V15.9667C1.31996 15.9739 0.916748 16.3815 0.916748 16.8833C0.916748 17.3851 1.31996 17.7927 1.82007 17.7999V17.8H1.83341H20.1534H20.1667V17.7999C20.6669 17.7927 21.0701 17.3851 21.0701 16.8833C21.0701 16.3815 20.6669 15.9739 20.1667 15.9667V15.9666C19.6805 15.9666 19.2142 15.7735 18.8704 15.4297C18.5266 15.0859 18.3334 14.6195 18.3334 14.1333V9.54998C18.3334 7.60506 17.5608 5.73979 16.1855 4.36453C15.1586 3.33759 13.8585 2.64669 12.4559 2.36258ZM10.9934 4.04998C9.53712 4.05175 8.14087 4.63101 7.11099 5.66089C6.07954 6.69234 5.50008 8.09129 5.50008 9.54998V14.1333C5.50008 14.7825 5.32791 15.414 5.00885 15.9666H16.978C16.6589 15.414 16.4867 14.7825 16.4867 14.1333V9.54998C16.4867 8.09129 15.9073 6.69234 14.8758 5.66089C13.8459 4.63101 12.4497 4.05175 10.9934 4.04998ZM8.95429 18.7571C9.39221 18.503 9.95314 18.6521 10.2072 19.09C10.2877 19.2289 10.4034 19.3442 10.5426 19.4244C10.6817 19.5045 10.8395 19.5467 11.0001 19.5467C11.1607 19.5467 11.3184 19.5045 11.4576 19.4244C11.5968 19.3442 11.7124 19.2289 11.793 19.09C12.047 18.6521 12.608 18.503 13.0459 18.7571C13.4838 19.0111 13.6329 19.572 13.3788 20.0099C13.1371 20.4267 12.7901 20.7726 12.3726 21.013C11.9552 21.2535 11.4819 21.3801 11.0001 21.3801C10.5183 21.3801 10.045 21.2535 9.62752 21.013C9.21005 20.7726 8.86307 20.4267 8.62133 20.0099C8.3673 19.572 8.51638 19.0111 8.95429 18.7571Z" fill="#7E8E9D"/>
</svg>
