<svg width="22" height="22" viewBox="0 0 22 22" fill="none" xmlns="http://www.w3.org/2000/svg">
<path fill-rule="evenodd" clip-rule="evenodd" d="M11.0001 2.74996C6.44373 2.74996 2.75008 6.44361 2.75008 11C2.75008 15.5563 6.44373 19.25 11.0001 19.25C15.5564 19.25 19.2501 15.5563 19.2501 11C19.2501 6.44361 15.5564 2.74996 11.0001 2.74996ZM0.916748 11C0.916748 5.43109 5.43121 0.916626 11.0001 0.916626C16.569 0.916626 21.0834 5.43109 21.0834 11C21.0834 16.5688 16.569 21.0833 11.0001 21.0833C5.43121 21.0833 0.916748 16.5688 0.916748 11Z" fill="#7E8E9D"/>
<path fill-rule="evenodd" clip-rule="evenodd" d="M11.0001 8.24996C9.4813 8.24996 8.25008 9.48118 8.25008 11C8.25008 12.5187 9.4813 13.75 11.0001 13.75C12.5189 13.75 13.7501 12.5187 13.7501 11C13.7501 9.48118 12.5189 8.24996 11.0001 8.24996ZM6.41675 11C6.41675 8.46865 8.46878 6.41663 11.0001 6.41663C13.5314 6.41663 15.5834 8.46865 15.5834 11C15.5834 13.5313 13.5314 15.5833 11.0001 15.5833C8.46878 15.5833 6.41675 13.5313 6.41675 11Z" fill="#7E8E9D"/>
<path fill-rule="evenodd" clip-rule="evenodd" d="M3.87107 3.87094C4.22905 3.51296 4.80945 3.51296 5.16743 3.87094L9.0541 7.75761C9.41208 8.11559 9.41208 8.69599 9.0541 9.05397C8.69612 9.41195 8.11571 9.41195 7.75773 9.05397L3.87107 5.16731C3.51309 4.80933 3.51309 4.22892 3.87107 3.87094Z" fill="#7E8E9D"/>
<path fill-rule="evenodd" clip-rule="evenodd" d="M12.9461 12.9459C13.304 12.588 13.8844 12.588 14.2424 12.9459L18.1291 16.8326C18.4871 17.1906 18.4871 17.771 18.1291 18.129C17.7711 18.487 17.1907 18.487 16.8327 18.129L12.9461 14.2423C12.5881 13.8843 12.5881 13.3039 12.9461 12.9459Z" fill="#7E8E9D"/>
<path fill-rule="evenodd" clip-rule="evenodd" d="M18.1291 3.87094C18.4871 4.22892 18.4871 4.80933 18.1291 5.16731L14.2424 9.05397C13.8844 9.41195 13.304 9.41195 12.9461 9.05397C12.5881 8.69599 12.5881 8.11559 12.9461 7.75761L16.8327 3.87094C17.1907 3.51296 17.7711 3.51296 18.1291 3.87094Z" fill="#7E8E9D"/>
<path fill-rule="evenodd" clip-rule="evenodd" d="M17.4783 4.52178C17.8362 4.87976 17.8362 5.46016 17.4783 5.81814L14.2424 9.05397C13.8844 9.41195 13.304 9.41195 12.9461 9.05397C12.5881 8.69599 12.5881 8.11559 12.9461 7.75761L16.1819 4.52178C16.5399 4.1638 17.1203 4.1638 17.4783 4.52178Z" fill="#7E8E9D"/>
<path fill-rule="evenodd" clip-rule="evenodd" d="M9.0541 12.9459C9.41208 13.3039 9.41208 13.8843 9.0541 14.2423L5.16743 18.129C4.80945 18.487 4.22905 18.487 3.87107 18.129C3.51309 17.771 3.51309 17.1906 3.87107 16.8326L7.75773 12.9459C8.11571 12.588 8.69612 12.588 9.0541 12.9459Z" fill="#7E8E9D"/>
</svg>
