<svg width="30" height="40" viewBox="0 0 30 40" fill="none" xmlns="http://www.w3.org/2000/svg">
<path fill-rule="evenodd" clip-rule="evenodd" d="M17.5 0V10.625C17.5 11.6562 18.3438 12.5 19.375 12.5H30V38.125C30 39.1641 29.1641 40 28.125 40H1.875C0.835938 40 0 39.1641 0 38.125V1.875C0 0.835938 0.835938 0 1.875 0H17.5ZM21.8047 0.546875L29.4531 8.20312C29.8047 8.55469 30 9.03125 30 9.52344V10H20V0H20.4766C20.9766 0 21.4531 0.195312 21.8047 0.546875ZM21.6337 21.0199L17.6536 25L21.6337 28.9801C22.1221 29.4689 22.1221 30.2607 21.6337 30.7491L20.7491 31.6337C20.2607 32.1221 19.4685 32.1221 18.9801 31.6337L15 27.6536L11.0199 31.6337C10.5315 32.1221 9.73926 32.1221 9.25085 31.6337L8.36631 30.7491C7.8779 30.2603 7.8779 29.4685 8.36631 28.9801L12.3464 25L8.36631 21.0199C7.8779 20.5311 7.8779 19.7393 8.36631 19.2509L9.25085 18.3663C9.73966 17.8779 10.5315 17.8779 11.0199 18.3663L15 22.3464L18.9801 18.3663C19.4689 17.8779 20.2607 17.8779 20.7491 18.3663L21.6337 19.2509C22.1221 19.7397 22.1221 20.5315 21.6337 21.0199Z" fill="#F34747"/>
</svg>
