<svg width="30" height="41" viewBox="0 0 30 41" fill="none" xmlns="http://www.w3.org/2000/svg">
<path fill-rule="evenodd" clip-rule="evenodd" d="M17.5 0V10.8906C17.5 11.9477 18.3438 12.8125 19.375 12.8125H30V39.0781C30 40.1432 29.1641 41 28.125 41H1.875C0.835938 41 0 40.1432 0 39.0781V1.92188C0 0.856836 0.835938 0 1.875 0H17.5ZM21.8047 0.560547L29.4531 8.4082C29.8047 8.76855 30 9.25703 30 9.76152V10.25H20V0H20.4766C20.9766 0 21.4531 0.200195 21.8047 0.560547ZM7.71966 25.7542L12.5947 30.7798C12.8875 31.0817 13.3624 31.0817 13.6553 30.7798L22.2803 21.8883C22.5732 21.5864 22.5732 21.0968 22.2803 20.7949L21.2197 19.7014C20.9268 19.3995 20.4519 19.3995 20.159 19.7014L13.125 26.9528L9.84096 23.5673C9.54808 23.2653 9.07318 23.2653 8.7803 23.5673L7.71966 24.6607C7.42678 24.9627 7.42678 25.4522 7.71966 25.7542Z" fill="#87B563"/>
</svg>
