<?xml version="1.0" standalone="no"?>
<!DOCTYPE svg PUBLIC "-//W3C//DTD SVG 20010904//EN"
 "http://www.w3.org/TR/2001/REC-SVG-20010904/DTD/svg10.dtd">
<svg version="1.0" xmlns="http://www.w3.org/2000/svg"
 width="512.000000pt" height="512.000000pt" viewBox="0 0 512.000000 512.000000"
 preserveAspectRatio="xMidYMid meet">
<metadata>
Created by potrace 1.14, written by Peter Selinger 2001-2017
</metadata>
<g transform="translate(0.000000,512.000000) scale(0.100000,-0.100000)"
fill="#000000" stroke="none">
<path d="M1985 4306 c-37 -16 -70 -52 -84 -89 -8 -19 -11 -303 -11 -888 l0
-859 1615 0 1615 0 0 859 c0 927 2 898 -53 949 -13 12 -39 27 -58 32 -21 6
-580 10 -1514 10 -1211 -1 -1485 -3 -1510 -14z"/>
<path d="M646 3514 c-160 -38 -315 -157 -394 -304 -37 -68 -72 -198 -127 -480
-2 -8 -4 -15 -5 -15 -1 0 -3 -9 -5 -20 -1 -11 -26 -126 -56 -255 l-53 -235 -3
-495 c-3 -457 -2 -498 14 -529 34 -66 59 -75 191 -76 98 0 116 3 113 15 -2 8
-5 56 -6 105 -5 175 56 326 185 456 201 201 495 242 746 103 223 -123 358
-404 311 -645 l-7 -35 1039 0 1039 1 -6 30 c-10 53 -6 188 7 245 22 94 88 213
159 286 201 207 480 257 732 133 137 -68 269 -217 312 -352 33 -107 44 -244
25 -324 -5 -20 -3 -21 78 -18 74 2 89 5 119 29 22 16 40 41 46 64 7 25 10 210
8 567 l-3 530 -1692 0 -1693 0 0 85 c-4 1049 -4 1064 -25 1092 -44 58 -44 58
-538 57 -350 -1 -465 -4 -511 -15z m799 -739 l0 -480 -567 0 c-313 0 -568 2
-568 6 0 3 25 122 56 265 61 280 73 336 80 374 22 119 71 204 148 257 86 59
104 61 496 60 l355 -2 0 -480z m-47 -631 c26 -17 30 -69 8 -99 -11 -16 -28
-18 -114 -19 -85 -1 -103 2 -121 18 -26 24 -27 66 -1 93 17 19 31 22 112 22
64 -1 100 -5 116 -15z"/>
<path d="M825 1670 c-88 -25 -141 -57 -202 -119 -174 -176 -173 -452 2 -625
204 -203 534 -166 690 78 29 46 46 82 44 96 0 3 5 19 11 35 6 17 12 64 12 105
1 290 -282 508 -557 430z m211 -286 c14 -10 37 -36 51 -57 21 -34 25 -49 21
-98 -16 -217 -329 -212 -343 6 -5 73 56 154 131 174 36 9 106 -3 140 -25z"/>
<path d="M4119 1666 c-155 -46 -257 -147 -304 -301 -83 -275 119 -559 405
-569 83 -3 139 9 218 46 235 110 321 423 176 639 -112 169 -304 240 -495 185z
m178 -261 c29 -7 80 -51 97 -84 44 -85 9 -193 -77 -238 -43 -22 -117 -20 -158
3 -132 77 -116 267 26 318 38 13 59 13 112 1z"/>
</g>
</svg>
