<?xml version="1.0" standalone="no"?>
<!DOCTYPE svg PUBLIC "-//W3C//DTD SVG 20010904//EN"
 "http://www.w3.org/TR/2001/REC-SVG-20010904/DTD/svg10.dtd">
<svg version="1.0" xmlns="http://www.w3.org/2000/svg"
 width="147.000000pt" height="147.000000pt" viewBox="0 0 147.000000 147.000000"
 preserveAspectRatio="xMidYMid meet">
<metadata>
Created by potrace 1.14, written by Peter Selinger 2001-2017
</metadata>
<g transform="translate(0.000000,147.000000) scale(0.100000,-0.100000)"
fill="#000000" stroke="none">
<path d="M110 1428 c0 -6 18 -50 56 -135 8 -18 20 -48 28 -65 42 -95 137 -310
160 -360 14 -31 30 -68 36 -82 l10 -26 164 0 c136 0 164 2 160 14 -3 7 1 20 8
27 7 8 15 23 16 34 2 11 8 23 14 26 5 3 9 8 7 10 -6 9 34 99 44 99 6 0 7 3 4
6 -3 4 -1 16 5 28 7 11 11 24 10 29 -1 4 3 7 9 7 5 0 8 4 4 9 -3 5 -1 12 5 16
5 3 10 15 10 26 0 10 5 19 12 19 6 0 8 3 5 6 -4 4 3 25 14 48 43 85 49 98 49
112 0 8 5 14 11 14 5 0 7 5 4 10 -3 6 -1 10 6 10 7 0 9 3 6 6 -3 4 -1 16 5 28
12 21 14 27 17 45 0 5 8 17 17 25 14 15 10 16 -48 17 -221 2 -242 0 -255 -18
-7 -10 -17 -23 -22 -29 -5 -7 -8 -14 -5 -17 7 -6 -17 -57 -27 -57 -5 0 -6 -6
-3 -14 3 -7 -2 -21 -11 -30 -9 -9 -14 -16 -10 -16 3 0 0 -10 -7 -22 -7 -13
-13 -25 -14 -28 -10 -36 -29 -70 -37 -67 -6 2 -41 71 -77 153 l-66 149 -157 0
c-86 0 -157 -3 -157 -7z"/>
<path d="M1200 1109 c-172 -23 -334 -139 -407 -293 -30 -62 -58 -154 -49 -163
4 -4 173 -6 277 -4 20 1 30 9 39 30 26 64 119 130 183 131 15 0 27 3 28 8 1 4
2 73 3 153 2 99 -1 146 -8 145 -6 0 -36 -3 -66 -7z"/>
<path d="M1250 673 c-38 -7 -78 -51 -85 -93 -15 -91 74 -155 159 -115 85 40
79 164 -9 201 -19 8 -36 13 -37 13 -2 -1 -14 -4 -28 -6z"/>
<path d="M887 503 l-148 -4 7 -37 c32 -178 177 -339 360 -401 52 -17 121 -27
159 -22 7 1 10 52 9 143 -1 79 -2 145 -3 148 0 3 -15 7 -32 8 -65 5 -144 63
-179 132 -11 22 -21 39 -23 38 -1 -1 -69 -4 -150 -5z"/>
</g>
</svg>
